solid OpenSCAD_Model
  facet normal 0.866025 0.5 0
    outer loop
      vertex 4 0 3
      vertex 2 3.4641 0
      vertex 2 3.4641 3
    endloop
  endfacet
  facet normal 0.866025 0.5 0
    outer loop
      vertex 2 3.4641 0
      vertex 4 0 3
      vertex 4 0 0
    endloop
  endfacet
  facet normal -0.866025 0.5 0
    outer loop
      vertex -4 0 0
      vertex -2 3.4641 3
      vertex -2 3.4641 0
    endloop
  endfacet
  facet normal -0.866025 0.5 0
    outer loop
      vertex -2 3.4641 3
      vertex -4 0 0
      vertex -4 0 3
    endloop
  endfacet
  facet normal 0 1 -0
    outer loop
      vertex 2 3.4641 0
      vertex -2 3.4641 3
      vertex 2 3.4641 3
    endloop
  endfacet
  facet normal 0 1 0
    outer loop
      vertex -2 3.4641 3
      vertex 2 3.4641 0
      vertex -2 3.4641 0
    endloop
  endfacet
  facet normal -0 0 1
    outer loop
      vertex 0.606217 0.349999 3
      vertex 4 0 3
      vertex 2 3.4641 3
    endloop
  endfacet
  facet normal 0 0 1
    outer loop
      vertex 0.697336 -0.0610085 3
      vertex 4 0 3
      vertex 0.7 0 3
    endloop
  endfacet
  facet normal 0 0 1
    outer loop
      vertex 4 0 3
      vertex 0.697336 0.0610085 3
      vertex 0.7 0 3
    endloop
  endfacet
  facet normal 0 0 1
    outer loop
      vertex 4 0 3
      vertex 0.689365 0.121553 3
      vertex 0.697336 0.0610085 3
    endloop
  endfacet
  facet normal 0 0 1
    outer loop
      vertex 4 0 3
      vertex 0.676147 0.181173 3
      vertex 0.689365 0.121553 3
    endloop
  endfacet
  facet normal 0 0 1
    outer loop
      vertex 4 0 3
      vertex 0.657784 0.239413 3
      vertex 0.676147 0.181173 3
    endloop
  endfacet
  facet normal 0 0 1
    outer loop
      vertex 4 0 3
      vertex 0.634415 0.295833 3
      vertex 0.657784 0.239413 3
    endloop
  endfacet
  facet normal 0 0 1
    outer loop
      vertex 4 0 3
      vertex 0.606217 0.349999 3
      vertex 0.634415 0.295833 3
    endloop
  endfacet
  facet normal 0 0 1
    outer loop
      vertex 2 3.4641 3
      vertex 0.573406 0.401503 3
      vertex 0.606217 0.349999 3
    endloop
  endfacet
  facet normal 0 0 1
    outer loop
      vertex 2 3.4641 3
      vertex 0.536231 0.449951 3
      vertex 0.573406 0.401503 3
    endloop
  endfacet
  facet normal 0 0 1
    outer loop
      vertex 2 3.4641 3
      vertex 0.494974 0.494974 3
      vertex 0.536231 0.449951 3
    endloop
  endfacet
  facet normal 0 0 1
    outer loop
      vertex 2 3.4641 3
      vertex 0.449951 0.536231 3
      vertex 0.494974 0.494974 3
    endloop
  endfacet
  facet normal 0 0 1
    outer loop
      vertex 2 3.4641 3
      vertex 0.401503 0.573406 3
      vertex 0.449951 0.536231 3
    endloop
  endfacet
  facet normal 0 0 1
    outer loop
      vertex 2 3.4641 3
      vertex 0.349999 0.606217 3
      vertex 0.401503 0.573406 3
    endloop
  endfacet
  facet normal 0 0 1
    outer loop
      vertex 2 3.4641 3
      vertex 0.295833 0.634415 3
      vertex 0.349999 0.606217 3
    endloop
  endfacet
  facet normal 0 0 1
    outer loop
      vertex 2 3.4641 3
      vertex 0.239413 0.657784 3
      vertex 0.295833 0.634415 3
    endloop
  endfacet
  facet normal 0 0 1
    outer loop
      vertex 2 3.4641 3
      vertex 0.181173 0.676147 3
      vertex 0.239413 0.657784 3
    endloop
  endfacet
  facet normal 0 0 1
    outer loop
      vertex 2 3.4641 3
      vertex 0.121553 0.689365 3
      vertex 0.181173 0.676147 3
    endloop
  endfacet
  facet normal 0 0 1
    outer loop
      vertex 2 3.4641 3
      vertex 0.0610085 0.697336 3
      vertex 0.121553 0.689365 3
    endloop
  endfacet
  facet normal 0 0 1
    outer loop
      vertex 2 3.4641 3
      vertex 0 0.7 3
      vertex 0.0610085 0.697336 3
    endloop
  endfacet
  facet normal -0 0 1
    outer loop
      vertex -2 3.4641 3
      vertex 0 0.7 3
      vertex 2 3.4641 3
    endloop
  endfacet
  facet normal 0 0 1
    outer loop
      vertex 0 0.7 3
      vertex -2 3.4641 3
      vertex -0.0610085 0.697336 3
    endloop
  endfacet
  facet normal 0 0 1
    outer loop
      vertex -0.0610085 0.697336 3
      vertex -2 3.4641 3
      vertex -0.121553 0.689365 3
    endloop
  endfacet
  facet normal 0 0 1
    outer loop
      vertex -0.121553 0.689365 3
      vertex -2 3.4641 3
      vertex -0.181173 0.676147 3
    endloop
  endfacet
  facet normal 0 0 1
    outer loop
      vertex -0.181173 0.676147 3
      vertex -2 3.4641 3
      vertex -0.239413 0.657784 3
    endloop
  endfacet
  facet normal 0 0 1
    outer loop
      vertex -0.239413 0.657784 3
      vertex -2 3.4641 3
      vertex -0.295833 0.634415 3
    endloop
  endfacet
  facet normal 0 0 1
    outer loop
      vertex -0.295833 0.634415 3
      vertex -2 3.4641 3
      vertex -0.349999 0.606217 3
    endloop
  endfacet
  facet normal 0 0 1
    outer loop
      vertex -0.349999 0.606217 3
      vertex -2 3.4641 3
      vertex -0.401503 0.573406 3
    endloop
  endfacet
  facet normal 0 0 1
    outer loop
      vertex -0.401503 0.573406 3
      vertex -2 3.4641 3
      vertex -0.449951 0.536231 3
    endloop
  endfacet
  facet normal 0 0 1
    outer loop
      vertex -0.449951 0.536231 3
      vertex -2 3.4641 3
      vertex -0.494974 0.494974 3
    endloop
  endfacet
  facet normal 0 0 1
    outer loop
      vertex -0.689365 0.121553 3
      vertex -4 0 3
      vertex -0.697336 0.0610085 3
    endloop
  endfacet
  facet normal 0 0 1
    outer loop
      vertex -0.676147 0.181173 3
      vertex -4 0 3
      vertex -0.689365 0.121553 3
    endloop
  endfacet
  facet normal 0 0 1
    outer loop
      vertex -0.657784 0.239413 3
      vertex -4 0 3
      vertex -0.676147 0.181173 3
    endloop
  endfacet
  facet normal 0 0 1
    outer loop
      vertex -0.634415 0.295833 3
      vertex -4 0 3
      vertex -0.657784 0.239413 3
    endloop
  endfacet
  facet normal 0 0 1
    outer loop
      vertex -0.606217 0.349999 3
      vertex -4 0 3
      vertex -0.634415 0.295833 3
    endloop
  endfacet
  facet normal 0 0 1
    outer loop
      vertex -4 0 3
      vertex -0.606217 0.349999 3
      vertex -2 3.4641 3
    endloop
  endfacet
  facet normal 0 0 1
    outer loop
      vertex -0.573406 0.401503 3
      vertex -2 3.4641 3
      vertex -0.606217 0.349999 3
    endloop
  endfacet
  facet normal 0 0 1
    outer loop
      vertex -0.536231 0.449951 3
      vertex -2 3.4641 3
      vertex -0.573406 0.401503 3
    endloop
  endfacet
  facet normal 0 0 1
    outer loop
      vertex -0.494974 0.494974 3
      vertex -2 3.4641 3
      vertex -0.536231 0.449951 3
    endloop
  endfacet
  facet normal 0 0 1
    outer loop
      vertex 0.689365 -0.121553 3
      vertex 4 0 3
      vertex 0.697336 -0.0610085 3
    endloop
  endfacet
  facet normal 0 0 1
    outer loop
      vertex 0.676147 -0.181173 3
      vertex 4 0 3
      vertex 0.689365 -0.121553 3
    endloop
  endfacet
  facet normal 0 0 1
    outer loop
      vertex 0.657784 -0.239413 3
      vertex 4 0 3
      vertex 0.676147 -0.181173 3
    endloop
  endfacet
  facet normal 0 0 1
    outer loop
      vertex 0.634415 -0.295833 3
      vertex 4 0 3
      vertex 0.657784 -0.239413 3
    endloop
  endfacet
  facet normal 0 0 1
    outer loop
      vertex 0.606217 -0.349999 3
      vertex 4 0 3
      vertex 0.634415 -0.295833 3
    endloop
  endfacet
  facet normal 0 0 1
    outer loop
      vertex 4 0 3
      vertex 0.606217 -0.349999 3
      vertex 2 -3.4641 3
    endloop
  endfacet
  facet normal -0 0 1
    outer loop
      vertex 0.573406 -0.401503 3
      vertex 2 -3.4641 3
      vertex 0.606217 -0.349999 3
    endloop
  endfacet
  facet normal -0 0 1
    outer loop
      vertex 0.536231 -0.449951 3
      vertex 2 -3.4641 3
      vertex 0.573406 -0.401503 3
    endloop
  endfacet
  facet normal -0 0 1
    outer loop
      vertex 0.494974 -0.494974 3
      vertex 2 -3.4641 3
      vertex 0.536231 -0.449951 3
    endloop
  endfacet
  facet normal -0 0 1
    outer loop
      vertex 0.449951 -0.536231 3
      vertex 2 -3.4641 3
      vertex 0.494974 -0.494974 3
    endloop
  endfacet
  facet normal -0 0 1
    outer loop
      vertex 0.401503 -0.573406 3
      vertex 2 -3.4641 3
      vertex 0.449951 -0.536231 3
    endloop
  endfacet
  facet normal -0 0 1
    outer loop
      vertex 0.349999 -0.606217 3
      vertex 2 -3.4641 3
      vertex 0.401503 -0.573406 3
    endloop
  endfacet
  facet normal -0 0 1
    outer loop
      vertex 0.295833 -0.634415 3
      vertex 2 -3.4641 3
      vertex 0.349999 -0.606217 3
    endloop
  endfacet
  facet normal -0 0 1
    outer loop
      vertex 0.239413 -0.657784 3
      vertex 2 -3.4641 3
      vertex 0.295833 -0.634415 3
    endloop
  endfacet
  facet normal -0 0 1
    outer loop
      vertex 0.181173 -0.676147 3
      vertex 2 -3.4641 3
      vertex 0.239413 -0.657784 3
    endloop
  endfacet
  facet normal -0 0 1
    outer loop
      vertex 0.121553 -0.689365 3
      vertex 2 -3.4641 3
      vertex 0.181173 -0.676147 3
    endloop
  endfacet
  facet normal -0 0 1
    outer loop
      vertex 0.0610085 -0.697336 3
      vertex 2 -3.4641 3
      vertex 0.121553 -0.689365 3
    endloop
  endfacet
  facet normal -0 0 1
    outer loop
      vertex 0 -0.7 3
      vertex 2 -3.4641 3
      vertex 0.0610085 -0.697336 3
    endloop
  endfacet
  facet normal 0 0 1
    outer loop
      vertex -2 -3.4641 3
      vertex 0 -0.7 3
      vertex -0.0610085 -0.697336 3
    endloop
  endfacet
  facet normal 0 0 1
    outer loop
      vertex -2 -3.4641 3
      vertex -0.0610085 -0.697336 3
      vertex -0.121553 -0.689365 3
    endloop
  endfacet
  facet normal 0 0 1
    outer loop
      vertex -2 -3.4641 3
      vertex -0.121553 -0.689365 3
      vertex -0.181173 -0.676147 3
    endloop
  endfacet
  facet normal 0 0 1
    outer loop
      vertex -2 -3.4641 3
      vertex -0.181173 -0.676147 3
      vertex -0.239413 -0.657784 3
    endloop
  endfacet
  facet normal 0 0 1
    outer loop
      vertex -2 -3.4641 3
      vertex -0.239413 -0.657784 3
      vertex -0.295833 -0.634415 3
    endloop
  endfacet
  facet normal 0 0 1
    outer loop
      vertex -2 -3.4641 3
      vertex -0.295833 -0.634415 3
      vertex -0.349999 -0.606217 3
    endloop
  endfacet
  facet normal 0 0 1
    outer loop
      vertex -2 -3.4641 3
      vertex -0.349999 -0.606217 3
      vertex -0.401503 -0.573406 3
    endloop
  endfacet
  facet normal 0 0 1
    outer loop
      vertex -2 -3.4641 3
      vertex -0.401503 -0.573406 3
      vertex -0.449951 -0.536231 3
    endloop
  endfacet
  facet normal 0 0 1
    outer loop
      vertex -2 -3.4641 3
      vertex -0.449951 -0.536231 3
      vertex -0.494974 -0.494974 3
    endloop
  endfacet
  facet normal 0 0 1
    outer loop
      vertex -2 -3.4641 3
      vertex -0.494974 -0.494974 3
      vertex -0.536231 -0.449951 3
    endloop
  endfacet
  facet normal 0 0 1
    outer loop
      vertex -0.697336 0.0610085 3
      vertex -4 0 3
      vertex -0.7 0 3
    endloop
  endfacet
  facet normal 0 0 1
    outer loop
      vertex -0.7 0 3
      vertex -4 0 3
      vertex -0.697336 -0.0610085 3
    endloop
  endfacet
  facet normal 0 0 1
    outer loop
      vertex -0.697336 -0.0610085 3
      vertex -4 0 3
      vertex -0.689365 -0.121553 3
    endloop
  endfacet
  facet normal 0 0 1
    outer loop
      vertex -0.689365 -0.121553 3
      vertex -4 0 3
      vertex -0.676147 -0.181173 3
    endloop
  endfacet
  facet normal 0 0 1
    outer loop
      vertex 0 -0.7 3
      vertex -2 -3.4641 3
      vertex 2 -3.4641 3
    endloop
  endfacet
  facet normal 0 0 1
    outer loop
      vertex -0.573406 -0.401503 3
      vertex -2 -3.4641 3
      vertex -0.536231 -0.449951 3
    endloop
  endfacet
  facet normal 0 0 1
    outer loop
      vertex -0.606217 -0.349999 3
      vertex -2 -3.4641 3
      vertex -0.573406 -0.401503 3
    endloop
  endfacet
  facet normal 0 0 1
    outer loop
      vertex -4 0 3
      vertex -0.606217 -0.349999 3
      vertex -0.634415 -0.295833 3
    endloop
  endfacet
  facet normal 0 0 1
    outer loop
      vertex -4 0 3
      vertex -0.634415 -0.295833 3
      vertex -0.657784 -0.239413 3
    endloop
  endfacet
  facet normal 0 0 1
    outer loop
      vertex -0.676147 -0.181173 3
      vertex -4 0 3
      vertex -0.657784 -0.239413 3
    endloop
  endfacet
  facet normal 0 0 1
    outer loop
      vertex -0.606217 -0.349999 3
      vertex -4 0 3
      vertex -2 -3.4641 3
    endloop
  endfacet
  facet normal 0.866025 -0.5 0
    outer loop
      vertex 2 -3.4641 3
      vertex 4 0 0
      vertex 4 0 3
    endloop
  endfacet
  facet normal 0.866025 -0.5 0
    outer loop
      vertex 4 0 0
      vertex 2 -3.4641 3
      vertex 2 -3.4641 0
    endloop
  endfacet
  facet normal 0 0 -1
    outer loop
      vertex 0.606217 -0.349999 0
      vertex 4 0 0
      vertex 2 -3.4641 0
    endloop
  endfacet
  facet normal 0 0 -1
    outer loop
      vertex 0.697336 0.0610085 0
      vertex 4 0 0
      vertex 0.7 0 0
    endloop
  endfacet
  facet normal -0 0 -1
    outer loop
      vertex 4 0 0
      vertex 0.697336 -0.0610085 0
      vertex 0.7 0 0
    endloop
  endfacet
  facet normal 0 0 -1
    outer loop
      vertex 4 0 0
      vertex 0.689365 -0.121553 0
      vertex 0.697336 -0.0610085 0
    endloop
  endfacet
  facet normal 0 0 -1
    outer loop
      vertex 4 0 0
      vertex 0.676147 -0.181173 0
      vertex 0.689365 -0.121553 0
    endloop
  endfacet
  facet normal 0 0 -1
    outer loop
      vertex 4 0 0
      vertex 0.657784 -0.239413 0
      vertex 0.676147 -0.181173 0
    endloop
  endfacet
  facet normal 0 0 -1
    outer loop
      vertex 4 0 0
      vertex 0.634415 -0.295833 0
      vertex 0.657784 -0.239413 0
    endloop
  endfacet
  facet normal 0 0 -1
    outer loop
      vertex 4 0 0
      vertex 0.606217 -0.349999 0
      vertex 0.634415 -0.295833 0
    endloop
  endfacet
  facet normal 0 0 -1
    outer loop
      vertex 2 -3.4641 0
      vertex 0.573406 -0.401503 0
      vertex 0.606217 -0.349999 0
    endloop
  endfacet
  facet normal 0 0 -1
    outer loop
      vertex 2 -3.4641 0
      vertex 0.536231 -0.449951 0
      vertex 0.573406 -0.401503 0
    endloop
  endfacet
  facet normal 0 0 -1
    outer loop
      vertex 2 -3.4641 0
      vertex 0.494974 -0.494974 0
      vertex 0.536231 -0.449951 0
    endloop
  endfacet
  facet normal 0 0 -1
    outer loop
      vertex 2 -3.4641 0
      vertex 0.449951 -0.536231 0
      vertex 0.494974 -0.494974 0
    endloop
  endfacet
  facet normal 0 0 -1
    outer loop
      vertex 2 -3.4641 0
      vertex 0.401503 -0.573406 0
      vertex 0.449951 -0.536231 0
    endloop
  endfacet
  facet normal 0 0 -1
    outer loop
      vertex 2 -3.4641 0
      vertex 0.349999 -0.606217 0
      vertex 0.401503 -0.573406 0
    endloop
  endfacet
  facet normal 0 0 -1
    outer loop
      vertex 2 -3.4641 0
      vertex 0.295833 -0.634415 0
      vertex 0.349999 -0.606217 0
    endloop
  endfacet
  facet normal 0 0 -1
    outer loop
      vertex 2 -3.4641 0
      vertex 0.239413 -0.657784 0
      vertex 0.295833 -0.634415 0
    endloop
  endfacet
  facet normal 0 0 -1
    outer loop
      vertex 2 -3.4641 0
      vertex 0.181173 -0.676147 0
      vertex 0.239413 -0.657784 0
    endloop
  endfacet
  facet normal 0 0 -1
    outer loop
      vertex 2 -3.4641 0
      vertex 0.121553 -0.689365 0
      vertex 0.181173 -0.676147 0
    endloop
  endfacet
  facet normal 0 0 -1
    outer loop
      vertex 2 -3.4641 0
      vertex 0.0610085 -0.697336 0
      vertex 0.121553 -0.689365 0
    endloop
  endfacet
  facet normal 0 0 -1
    outer loop
      vertex 2 -3.4641 0
      vertex 0 -0.7 0
      vertex 0.0610085 -0.697336 0
    endloop
  endfacet
  facet normal 0 0 -1
    outer loop
      vertex -2 -3.4641 0
      vertex 0 -0.7 0
      vertex 2 -3.4641 0
    endloop
  endfacet
  facet normal -0 0 -1
    outer loop
      vertex 0 -0.7 0
      vertex -2 -3.4641 0
      vertex -0.0610085 -0.697336 0
    endloop
  endfacet
  facet normal -0 0 -1
    outer loop
      vertex -0.0610085 -0.697336 0
      vertex -2 -3.4641 0
      vertex -0.121553 -0.689365 0
    endloop
  endfacet
  facet normal -0 0 -1
    outer loop
      vertex -0.121553 -0.689365 0
      vertex -2 -3.4641 0
      vertex -0.181173 -0.676147 0
    endloop
  endfacet
  facet normal -0 0 -1
    outer loop
      vertex -0.181173 -0.676147 0
      vertex -2 -3.4641 0
      vertex -0.239413 -0.657784 0
    endloop
  endfacet
  facet normal -0 0 -1
    outer loop
      vertex -0.239413 -0.657784 0
      vertex -2 -3.4641 0
      vertex -0.295833 -0.634415 0
    endloop
  endfacet
  facet normal -0 0 -1
    outer loop
      vertex -0.295833 -0.634415 0
      vertex -2 -3.4641 0
      vertex -0.349999 -0.606217 0
    endloop
  endfacet
  facet normal -0 0 -1
    outer loop
      vertex -0.349999 -0.606217 0
      vertex -2 -3.4641 0
      vertex -0.401503 -0.573406 0
    endloop
  endfacet
  facet normal -0 0 -1
    outer loop
      vertex -0.401503 -0.573406 0
      vertex -2 -3.4641 0
      vertex -0.449951 -0.536231 0
    endloop
  endfacet
  facet normal -0 0 -1
    outer loop
      vertex -0.449951 -0.536231 0
      vertex -2 -3.4641 0
      vertex -0.494974 -0.494974 0
    endloop
  endfacet
  facet normal 0 0 -1
    outer loop
      vertex -0.689365 -0.121553 0
      vertex -4 0 0
      vertex -0.697336 -0.0610085 0
    endloop
  endfacet
  facet normal 0 0 -1
    outer loop
      vertex -0.676147 -0.181173 0
      vertex -4 0 0
      vertex -0.689365 -0.121553 0
    endloop
  endfacet
  facet normal 0 0 -1
    outer loop
      vertex -0.657784 -0.239413 0
      vertex -4 0 0
      vertex -0.676147 -0.181173 0
    endloop
  endfacet
  facet normal 0 0 -1
    outer loop
      vertex -0.634415 -0.295833 0
      vertex -4 0 0
      vertex -0.657784 -0.239413 0
    endloop
  endfacet
  facet normal 0 0 -1
    outer loop
      vertex -0.606217 -0.349999 0
      vertex -4 0 0
      vertex -0.634415 -0.295833 0
    endloop
  endfacet
  facet normal 0 0 -1
    outer loop
      vertex -4 0 0
      vertex -0.606217 -0.349999 0
      vertex -2 -3.4641 0
    endloop
  endfacet
  facet normal -0 0 -1
    outer loop
      vertex -0.573406 -0.401503 0
      vertex -2 -3.4641 0
      vertex -0.606217 -0.349999 0
    endloop
  endfacet
  facet normal -0 0 -1
    outer loop
      vertex -0.536231 -0.449951 0
      vertex -2 -3.4641 0
      vertex -0.573406 -0.401503 0
    endloop
  endfacet
  facet normal -0 0 -1
    outer loop
      vertex -0.494974 -0.494974 0
      vertex -2 -3.4641 0
      vertex -0.536231 -0.449951 0
    endloop
  endfacet
  facet normal 0 0 -1
    outer loop
      vertex 0.689365 0.121553 0
      vertex 4 0 0
      vertex 0.697336 0.0610085 0
    endloop
  endfacet
  facet normal 0 0 -1
    outer loop
      vertex 0.676147 0.181173 0
      vertex 4 0 0
      vertex 0.689365 0.121553 0
    endloop
  endfacet
  facet normal 0 0 -1
    outer loop
      vertex 0.657784 0.239413 0
      vertex 4 0 0
      vertex 0.676147 0.181173 0
    endloop
  endfacet
  facet normal 0 0 -1
    outer loop
      vertex 0.634415 0.295833 0
      vertex 4 0 0
      vertex 0.657784 0.239413 0
    endloop
  endfacet
  facet normal 0 0 -1
    outer loop
      vertex 0.606217 0.349999 0
      vertex 4 0 0
      vertex 0.634415 0.295833 0
    endloop
  endfacet
  facet normal 0 0 -1
    outer loop
      vertex 4 0 0
      vertex 0.606217 0.349999 0
      vertex 2 3.4641 0
    endloop
  endfacet
  facet normal 0 0 -1
    outer loop
      vertex 0.573406 0.401503 0
      vertex 2 3.4641 0
      vertex 0.606217 0.349999 0
    endloop
  endfacet
  facet normal 0 0 -1
    outer loop
      vertex 0.536231 0.449951 0
      vertex 2 3.4641 0
      vertex 0.573406 0.401503 0
    endloop
  endfacet
  facet normal 0 0 -1
    outer loop
      vertex 0.494974 0.494974 0
      vertex 2 3.4641 0
      vertex 0.536231 0.449951 0
    endloop
  endfacet
  facet normal 0 0 -1
    outer loop
      vertex 0.449951 0.536231 0
      vertex 2 3.4641 0
      vertex 0.494974 0.494974 0
    endloop
  endfacet
  facet normal 0 0 -1
    outer loop
      vertex 0.401503 0.573406 0
      vertex 2 3.4641 0
      vertex 0.449951 0.536231 0
    endloop
  endfacet
  facet normal 0 0 -1
    outer loop
      vertex 0.349999 0.606217 0
      vertex 2 3.4641 0
      vertex 0.401503 0.573406 0
    endloop
  endfacet
  facet normal 0 0 -1
    outer loop
      vertex 0.295833 0.634415 0
      vertex 2 3.4641 0
      vertex 0.349999 0.606217 0
    endloop
  endfacet
  facet normal 0 0 -1
    outer loop
      vertex 0.239413 0.657784 0
      vertex 2 3.4641 0
      vertex 0.295833 0.634415 0
    endloop
  endfacet
  facet normal 0 0 -1
    outer loop
      vertex 0.181173 0.676147 0
      vertex 2 3.4641 0
      vertex 0.239413 0.657784 0
    endloop
  endfacet
  facet normal 0 0 -1
    outer loop
      vertex 0.121553 0.689365 0
      vertex 2 3.4641 0
      vertex 0.181173 0.676147 0
    endloop
  endfacet
  facet normal 0 0 -1
    outer loop
      vertex 0.0610085 0.697336 0
      vertex 2 3.4641 0
      vertex 0.121553 0.689365 0
    endloop
  endfacet
  facet normal 0 0 -1
    outer loop
      vertex 0 0.7 0
      vertex 2 3.4641 0
      vertex 0.0610085 0.697336 0
    endloop
  endfacet
  facet normal 0 0 -1
    outer loop
      vertex -2 3.4641 0
      vertex 0 0.7 0
      vertex -0.0610085 0.697336 0
    endloop
  endfacet
  facet normal 0 0 -1
    outer loop
      vertex -2 3.4641 0
      vertex -0.0610085 0.697336 0
      vertex -0.121553 0.689365 0
    endloop
  endfacet
  facet normal 0 0 -1
    outer loop
      vertex -2 3.4641 0
      vertex -0.121553 0.689365 0
      vertex -0.181173 0.676147 0
    endloop
  endfacet
  facet normal 0 0 -1
    outer loop
      vertex -2 3.4641 0
      vertex -0.181173 0.676147 0
      vertex -0.239413 0.657784 0
    endloop
  endfacet
  facet normal 0 0 -1
    outer loop
      vertex -2 3.4641 0
      vertex -0.239413 0.657784 0
      vertex -0.295833 0.634415 0
    endloop
  endfacet
  facet normal 0 0 -1
    outer loop
      vertex -2 3.4641 0
      vertex -0.295833 0.634415 0
      vertex -0.349999 0.606217 0
    endloop
  endfacet
  facet normal 0 0 -1
    outer loop
      vertex -2 3.4641 0
      vertex -0.349999 0.606217 0
      vertex -0.401503 0.573406 0
    endloop
  endfacet
  facet normal 0 0 -1
    outer loop
      vertex -2 3.4641 0
      vertex -0.401503 0.573406 0
      vertex -0.449951 0.536231 0
    endloop
  endfacet
  facet normal 0 0 -1
    outer loop
      vertex -2 3.4641 0
      vertex -0.449951 0.536231 0
      vertex -0.494974 0.494974 0
    endloop
  endfacet
  facet normal 0 0 -1
    outer loop
      vertex -2 3.4641 0
      vertex -0.494974 0.494974 0
      vertex -0.536231 0.449951 0
    endloop
  endfacet
  facet normal 0 0 -1
    outer loop
      vertex -0.697336 -0.0610085 0
      vertex -4 0 0
      vertex -0.7 0 0
    endloop
  endfacet
  facet normal 0 0 -1
    outer loop
      vertex -0.7 0 0
      vertex -4 0 0
      vertex -0.697336 0.0610085 0
    endloop
  endfacet
  facet normal -0 0 -1
    outer loop
      vertex -0.697336 0.0610085 0
      vertex -4 0 0
      vertex -0.689365 0.121553 0
    endloop
  endfacet
  facet normal -0 0 -1
    outer loop
      vertex -0.689365 0.121553 0
      vertex -4 0 0
      vertex -0.676147 0.181173 0
    endloop
  endfacet
  facet normal 0 0 -1
    outer loop
      vertex 0 0.7 0
      vertex -2 3.4641 0
      vertex 2 3.4641 0
    endloop
  endfacet
  facet normal 0 0 -1
    outer loop
      vertex -0.573406 0.401503 0
      vertex -2 3.4641 0
      vertex -0.536231 0.449951 0
    endloop
  endfacet
  facet normal 0 0 -1
    outer loop
      vertex -0.606217 0.349999 0
      vertex -2 3.4641 0
      vertex -0.573406 0.401503 0
    endloop
  endfacet
  facet normal 0 0 -1
    outer loop
      vertex -4 0 0
      vertex -0.606217 0.349999 0
      vertex -0.634415 0.295833 0
    endloop
  endfacet
  facet normal 0 0 -1
    outer loop
      vertex -4 0 0
      vertex -0.634415 0.295833 0
      vertex -0.657784 0.239413 0
    endloop
  endfacet
  facet normal -0 0 -1
    outer loop
      vertex -0.676147 0.181173 0
      vertex -4 0 0
      vertex -0.657784 0.239413 0
    endloop
  endfacet
  facet normal -0 0 -1
    outer loop
      vertex -0.606217 0.349999 0
      vertex -4 0 0
      vertex -2 3.4641 0
    endloop
  endfacet
  facet normal 0 -1 0
    outer loop
      vertex -2 -3.4641 0
      vertex 2 -3.4641 3
      vertex -2 -3.4641 3
    endloop
  endfacet
  facet normal 0 -1 -0
    outer loop
      vertex 2 -3.4641 3
      vertex -2 -3.4641 0
      vertex 2 -3.4641 0
    endloop
  endfacet
  facet normal -0.866025 -0.5 0
    outer loop
      vertex -2 -3.4641 0
      vertex -4 0 3
      vertex -4 0 0
    endloop
  endfacet
  facet normal -0.866025 -0.5 0
    outer loop
      vertex -4 0 3
      vertex -2 -3.4641 0
      vertex -2 -3.4641 3
    endloop
  endfacet
  facet normal -0.999048 -0.0436245 0
    outer loop
      vertex 0.7 0 0
      vertex 0.697336 0.0610085 3
      vertex 0.697336 0.0610085 0
    endloop
  endfacet
  facet normal -0.999048 -0.0436245 0
    outer loop
      vertex 0.697336 0.0610085 3
      vertex 0.7 0 0
      vertex 0.7 0 3
    endloop
  endfacet
  facet normal 0.999048 -0.0436245 0
    outer loop
      vertex -0.7 0 3
      vertex -0.697336 0.0610085 0
      vertex -0.697336 0.0610085 3
    endloop
  endfacet
  facet normal 0.999048 -0.0436245 0
    outer loop
      vertex -0.697336 0.0610085 0
      vertex -0.7 0 3
      vertex -0.7 0 0
    endloop
  endfacet
  facet normal 0.0436245 -0.999048 0
    outer loop
      vertex -0.0610085 0.697336 0
      vertex 0 0.7 3
      vertex -0.0610085 0.697336 3
    endloop
  endfacet
  facet normal 0.0436245 -0.999048 0
    outer loop
      vertex 0 0.7 3
      vertex -0.0610085 0.697336 0
      vertex 0 0.7 0
    endloop
  endfacet
  facet normal -0.0436245 0.999048 0
    outer loop
      vertex 0.0610085 -0.697336 0
      vertex 0 -0.7 3
      vertex 0.0610085 -0.697336 3
    endloop
  endfacet
  facet normal -0.0436245 0.999048 0
    outer loop
      vertex 0 -0.7 3
      vertex 0.0610085 -0.697336 0
      vertex 0 -0.7 0
    endloop
  endfacet
  facet normal -0.675599 -0.737269 0
    outer loop
      vertex 0.449951 0.536231 0
      vertex 0.494974 0.494974 3
      vertex 0.449951 0.536231 3
    endloop
  endfacet
  facet normal -0.675599 -0.737269 -0
    outer loop
      vertex 0.494974 0.494974 3
      vertex 0.449951 0.536231 0
      vertex 0.494974 0.494974 0
    endloop
  endfacet
  facet normal 0.737269 -0.675599 0
    outer loop
      vertex -0.536231 0.449951 3
      vertex -0.494974 0.494974 0
      vertex -0.494974 0.494974 3
    endloop
  endfacet
  facet normal 0.737269 -0.675599 0
    outer loop
      vertex -0.494974 0.494974 0
      vertex -0.536231 0.449951 3
      vertex -0.536231 0.449951 0
    endloop
  endfacet
  facet normal 0.461761 -0.887004 0
    outer loop
      vertex -0.349999 0.606217 0
      vertex -0.295833 0.634415 3
      vertex -0.349999 0.606217 3
    endloop
  endfacet
  facet normal 0.461761 -0.887004 0
    outer loop
      vertex -0.295833 0.634415 3
      vertex -0.349999 0.606217 0
      vertex -0.295833 0.634415 0
    endloop
  endfacet
  facet normal -0.887004 -0.461761 0
    outer loop
      vertex 0.634415 0.295833 0
      vertex 0.606217 0.349999 3
      vertex 0.606217 0.349999 0
    endloop
  endfacet
  facet normal -0.887004 -0.461761 0
    outer loop
      vertex 0.606217 0.349999 3
      vertex 0.634415 0.295833 0
      vertex 0.634415 0.295833 3
    endloop
  endfacet
  facet normal -0.38267 -0.923885 0
    outer loop
      vertex 0.239413 0.657784 0
      vertex 0.295833 0.634415 3
      vertex 0.239413 0.657784 3
    endloop
  endfacet
  facet normal -0.38267 -0.923885 -0
    outer loop
      vertex 0.295833 0.634415 3
      vertex 0.239413 0.657784 0
      vertex 0.295833 0.634415 0
    endloop
  endfacet
  facet normal -0.537292 -0.843396 0
    outer loop
      vertex 0.349999 0.606217 0
      vertex 0.401503 0.573406 3
      vertex 0.349999 0.606217 3
    endloop
  endfacet
  facet normal -0.537292 -0.843396 -0
    outer loop
      vertex 0.401503 0.573406 3
      vertex 0.349999 0.606217 0
      vertex 0.401503 0.573406 0
    endloop
  endfacet
  facet normal 0.887004 -0.461761 0
    outer loop
      vertex -0.634415 0.295833 3
      vertex -0.606217 0.349999 0
      vertex -0.606217 0.349999 3
    endloop
  endfacet
  facet normal 0.887004 -0.461761 0
    outer loop
      vertex -0.606217 0.349999 0
      vertex -0.634415 0.295833 3
      vertex -0.634415 0.295833 0
    endloop
  endfacet
  facet normal 0.843396 -0.537292 0
    outer loop
      vertex -0.606217 0.349999 3
      vertex -0.573406 0.401503 0
      vertex -0.573406 0.401503 3
    endloop
  endfacet
  facet normal 0.843396 -0.537292 0
    outer loop
      vertex -0.573406 0.401503 0
      vertex -0.606217 0.349999 3
      vertex -0.606217 0.349999 0
    endloop
  endfacet
  facet normal 0.216448 -0.976294 0
    outer loop
      vertex -0.181173 0.676147 0
      vertex -0.121553 0.689365 3
      vertex -0.181173 0.676147 3
    endloop
  endfacet
  facet normal 0.216448 -0.976294 0
    outer loop
      vertex -0.121553 0.689365 3
      vertex -0.181173 0.676147 0
      vertex -0.121553 0.689365 0
    endloop
  endfacet
  facet normal -0.461761 0.887004 0
    outer loop
      vertex 0.349999 -0.606217 0
      vertex 0.295833 -0.634415 3
      vertex 0.349999 -0.606217 3
    endloop
  endfacet
  facet normal -0.461761 0.887004 0
    outer loop
      vertex 0.295833 -0.634415 3
      vertex 0.349999 -0.606217 0
      vertex 0.295833 -0.634415 0
    endloop
  endfacet
  facet normal -0.976294 -0.216448 0
    outer loop
      vertex 0.689365 0.121553 0
      vertex 0.676147 0.181173 3
      vertex 0.676147 0.181173 0
    endloop
  endfacet
  facet normal -0.976294 -0.216448 0
    outer loop
      vertex 0.676147 0.181173 3
      vertex 0.689365 0.121553 0
      vertex 0.689365 0.121553 3
    endloop
  endfacet
  facet normal -0.991445 -0.130529 0
    outer loop
      vertex 0.697336 0.0610085 0
      vertex 0.689365 0.121553 3
      vertex 0.689365 0.121553 0
    endloop
  endfacet
  facet normal -0.991445 -0.130529 0
    outer loop
      vertex 0.689365 0.121553 3
      vertex 0.697336 0.0610085 0
      vertex 0.697336 0.0610085 3
    endloop
  endfacet
  facet normal -0.923885 -0.38267 0
    outer loop
      vertex 0.657784 0.239413 0
      vertex 0.634415 0.295833 3
      vertex 0.634415 0.295833 0
    endloop
  endfacet
  facet normal -0.923885 -0.38267 0
    outer loop
      vertex 0.634415 0.295833 3
      vertex 0.657784 0.239413 0
      vertex 0.657784 0.239413 3
    endloop
  endfacet
  facet normal -0.793357 -0.608757 0
    outer loop
      vertex 0.573406 0.401503 0
      vertex 0.536231 0.449951 3
      vertex 0.536231 0.449951 0
    endloop
  endfacet
  facet normal -0.793357 -0.608757 0
    outer loop
      vertex 0.536231 0.449951 3
      vertex 0.573406 0.401503 0
      vertex 0.573406 0.401503 3
    endloop
  endfacet
  facet normal -0.737269 -0.675599 0
    outer loop
      vertex 0.536231 0.449951 0
      vertex 0.494974 0.494974 3
      vertex 0.494974 0.494974 0
    endloop
  endfacet
  facet normal -0.737269 -0.675599 0
    outer loop
      vertex 0.494974 0.494974 3
      vertex 0.536231 0.449951 0
      vertex 0.536231 0.449951 3
    endloop
  endfacet
  facet normal -0.216448 -0.976294 0
    outer loop
      vertex 0.121553 0.689365 0
      vertex 0.181173 0.676147 3
      vertex 0.121553 0.689365 3
    endloop
  endfacet
  facet normal -0.216448 -0.976294 -0
    outer loop
      vertex 0.181173 0.676147 3
      vertex 0.121553 0.689365 0
      vertex 0.181173 0.676147 0
    endloop
  endfacet
  facet normal -0.130529 -0.991445 0
    outer loop
      vertex 0.0610085 0.697336 0
      vertex 0.121553 0.689365 3
      vertex 0.0610085 0.697336 3
    endloop
  endfacet
  facet normal -0.130529 -0.991445 -0
    outer loop
      vertex 0.121553 0.689365 3
      vertex 0.0610085 0.697336 0
      vertex 0.121553 0.689365 0
    endloop
  endfacet
  facet normal -0.461761 -0.887004 0
    outer loop
      vertex 0.295833 0.634415 0
      vertex 0.349999 0.606217 3
      vertex 0.295833 0.634415 3
    endloop
  endfacet
  facet normal -0.461761 -0.887004 -0
    outer loop
      vertex 0.349999 0.606217 3
      vertex 0.295833 0.634415 0
      vertex 0.349999 0.606217 0
    endloop
  endfacet
  facet normal -0.608757 -0.793357 0
    outer loop
      vertex 0.401503 0.573406 0
      vertex 0.449951 0.536231 3
      vertex 0.401503 0.573406 3
    endloop
  endfacet
  facet normal -0.608757 -0.793357 -0
    outer loop
      vertex 0.449951 0.536231 3
      vertex 0.401503 0.573406 0
      vertex 0.449951 0.536231 0
    endloop
  endfacet
  facet normal 0.976294 -0.216448 0
    outer loop
      vertex -0.689365 0.121553 3
      vertex -0.676147 0.181173 0
      vertex -0.676147 0.181173 3
    endloop
  endfacet
  facet normal 0.976294 -0.216448 0
    outer loop
      vertex -0.676147 0.181173 0
      vertex -0.689365 0.121553 3
      vertex -0.689365 0.121553 0
    endloop
  endfacet
  facet normal 0.923885 -0.38267 0
    outer loop
      vertex -0.657784 0.239413 3
      vertex -0.634415 0.295833 0
      vertex -0.634415 0.295833 3
    endloop
  endfacet
  facet normal 0.923885 -0.38267 0
    outer loop
      vertex -0.634415 0.295833 0
      vertex -0.657784 0.239413 3
      vertex -0.657784 0.239413 0
    endloop
  endfacet
  facet normal 0.991445 -0.130529 0
    outer loop
      vertex -0.697336 0.0610085 3
      vertex -0.689365 0.121553 0
      vertex -0.689365 0.121553 3
    endloop
  endfacet
  facet normal 0.991445 -0.130529 0
    outer loop
      vertex -0.689365 0.121553 0
      vertex -0.697336 0.0610085 3
      vertex -0.697336 0.0610085 0
    endloop
  endfacet
  facet normal 0.608757 -0.793357 0
    outer loop
      vertex -0.449951 0.536231 0
      vertex -0.401503 0.573406 3
      vertex -0.449951 0.536231 3
    endloop
  endfacet
  facet normal 0.608757 -0.793357 0
    outer loop
      vertex -0.401503 0.573406 3
      vertex -0.449951 0.536231 0
      vertex -0.401503 0.573406 0
    endloop
  endfacet
  facet normal 0.130529 -0.991445 0
    outer loop
      vertex -0.121553 0.689365 0
      vertex -0.0610085 0.697336 3
      vertex -0.121553 0.689365 3
    endloop
  endfacet
  facet normal 0.130529 -0.991445 0
    outer loop
      vertex -0.0610085 0.697336 3
      vertex -0.121553 0.689365 0
      vertex -0.0610085 0.697336 0
    endloop
  endfacet
  facet normal -0.737269 0.675599 0
    outer loop
      vertex 0.494974 -0.494974 0
      vertex 0.536231 -0.449951 3
      vertex 0.536231 -0.449951 0
    endloop
  endfacet
  facet normal -0.737269 0.675599 0
    outer loop
      vertex 0.536231 -0.449951 3
      vertex 0.494974 -0.494974 0
      vertex 0.494974 -0.494974 3
    endloop
  endfacet
  facet normal -0.130529 0.991445 0
    outer loop
      vertex 0.121553 -0.689365 0
      vertex 0.0610085 -0.697336 3
      vertex 0.121553 -0.689365 3
    endloop
  endfacet
  facet normal -0.130529 0.991445 0
    outer loop
      vertex 0.0610085 -0.697336 3
      vertex 0.121553 -0.689365 0
      vertex 0.0610085 -0.697336 0
    endloop
  endfacet
  facet normal -0.953717 -0.300706 0
    outer loop
      vertex 0.676147 0.181173 0
      vertex 0.657784 0.239413 3
      vertex 0.657784 0.239413 0
    endloop
  endfacet
  facet normal -0.953717 -0.300706 0
    outer loop
      vertex 0.657784 0.239413 3
      vertex 0.676147 0.181173 0
      vertex 0.676147 0.181173 3
    endloop
  endfacet
  facet normal -0.843396 -0.537292 0
    outer loop
      vertex 0.606217 0.349999 0
      vertex 0.573406 0.401503 3
      vertex 0.573406 0.401503 0
    endloop
  endfacet
  facet normal -0.843396 -0.537292 0
    outer loop
      vertex 0.573406 0.401503 3
      vertex 0.606217 0.349999 0
      vertex 0.606217 0.349999 3
    endloop
  endfacet
  facet normal -0.300706 -0.953717 0
    outer loop
      vertex 0.181173 0.676147 0
      vertex 0.239413 0.657784 3
      vertex 0.181173 0.676147 3
    endloop
  endfacet
  facet normal -0.300706 -0.953717 -0
    outer loop
      vertex 0.239413 0.657784 3
      vertex 0.181173 0.676147 0
      vertex 0.239413 0.657784 0
    endloop
  endfacet
  facet normal -0.0436245 -0.999048 0
    outer loop
      vertex 0 0.7 0
      vertex 0.0610085 0.697336 3
      vertex 0 0.7 3
    endloop
  endfacet
  facet normal -0.0436245 -0.999048 -0
    outer loop
      vertex 0.0610085 0.697336 3
      vertex 0 0.7 0
      vertex 0.0610085 0.697336 0
    endloop
  endfacet
  facet normal 0.793357 -0.608757 0
    outer loop
      vertex -0.573406 0.401503 3
      vertex -0.536231 0.449951 0
      vertex -0.536231 0.449951 3
    endloop
  endfacet
  facet normal 0.793357 -0.608757 0
    outer loop
      vertex -0.536231 0.449951 0
      vertex -0.573406 0.401503 3
      vertex -0.573406 0.401503 0
    endloop
  endfacet
  facet normal 0.953717 -0.300706 0
    outer loop
      vertex -0.676147 0.181173 3
      vertex -0.657784 0.239413 0
      vertex -0.657784 0.239413 3
    endloop
  endfacet
  facet normal 0.953717 -0.300706 0
    outer loop
      vertex -0.657784 0.239413 0
      vertex -0.676147 0.181173 3
      vertex -0.676147 0.181173 0
    endloop
  endfacet
  facet normal 0.675599 -0.737269 0
    outer loop
      vertex -0.494974 0.494974 0
      vertex -0.449951 0.536231 3
      vertex -0.494974 0.494974 3
    endloop
  endfacet
  facet normal 0.675599 -0.737269 0
    outer loop
      vertex -0.449951 0.536231 3
      vertex -0.494974 0.494974 0
      vertex -0.449951 0.536231 0
    endloop
  endfacet
  facet normal 0.537292 -0.843396 0
    outer loop
      vertex -0.401503 0.573406 0
      vertex -0.349999 0.606217 3
      vertex -0.401503 0.573406 3
    endloop
  endfacet
  facet normal 0.537292 -0.843396 0
    outer loop
      vertex -0.349999 0.606217 3
      vertex -0.401503 0.573406 0
      vertex -0.349999 0.606217 0
    endloop
  endfacet
  facet normal 0.38267 -0.923885 0
    outer loop
      vertex -0.295833 0.634415 0
      vertex -0.239413 0.657784 3
      vertex -0.295833 0.634415 3
    endloop
  endfacet
  facet normal 0.38267 -0.923885 0
    outer loop
      vertex -0.239413 0.657784 3
      vertex -0.295833 0.634415 0
      vertex -0.239413 0.657784 0
    endloop
  endfacet
  facet normal 0.300706 -0.953717 0
    outer loop
      vertex -0.239413 0.657784 0
      vertex -0.181173 0.676147 3
      vertex -0.239413 0.657784 3
    endloop
  endfacet
  facet normal 0.300706 -0.953717 0
    outer loop
      vertex -0.181173 0.676147 3
      vertex -0.239413 0.657784 0
      vertex -0.181173 0.676147 0
    endloop
  endfacet
  facet normal -0.999048 0.0436245 0
    outer loop
      vertex 0.697336 -0.0610085 0
      vertex 0.7 0 3
      vertex 0.7 0 0
    endloop
  endfacet
  facet normal -0.999048 0.0436245 0
    outer loop
      vertex 0.7 0 3
      vertex 0.697336 -0.0610085 0
      vertex 0.697336 -0.0610085 3
    endloop
  endfacet
  facet normal -0.991445 0.130529 0
    outer loop
      vertex 0.689365 -0.121553 0
      vertex 0.697336 -0.0610085 3
      vertex 0.697336 -0.0610085 0
    endloop
  endfacet
  facet normal -0.991445 0.130529 0
    outer loop
      vertex 0.697336 -0.0610085 3
      vertex 0.689365 -0.121553 0
      vertex 0.689365 -0.121553 3
    endloop
  endfacet
  facet normal -0.675599 0.737269 0
    outer loop
      vertex 0.494974 -0.494974 0
      vertex 0.449951 -0.536231 3
      vertex 0.494974 -0.494974 3
    endloop
  endfacet
  facet normal -0.675599 0.737269 0
    outer loop
      vertex 0.449951 -0.536231 3
      vertex 0.494974 -0.494974 0
      vertex 0.449951 -0.536231 0
    endloop
  endfacet
  facet normal -0.953717 0.300706 0
    outer loop
      vertex 0.657784 -0.239413 0
      vertex 0.676147 -0.181173 3
      vertex 0.676147 -0.181173 0
    endloop
  endfacet
  facet normal -0.953717 0.300706 0
    outer loop
      vertex 0.676147 -0.181173 3
      vertex 0.657784 -0.239413 0
      vertex 0.657784 -0.239413 3
    endloop
  endfacet
  facet normal -0.887004 0.461761 0
    outer loop
      vertex 0.606217 -0.349999 0
      vertex 0.634415 -0.295833 3
      vertex 0.634415 -0.295833 0
    endloop
  endfacet
  facet normal -0.887004 0.461761 0
    outer loop
      vertex 0.634415 -0.295833 3
      vertex 0.606217 -0.349999 0
      vertex 0.606217 -0.349999 3
    endloop
  endfacet
  facet normal -0.793357 0.608757 0
    outer loop
      vertex 0.536231 -0.449951 0
      vertex 0.573406 -0.401503 3
      vertex 0.573406 -0.401503 0
    endloop
  endfacet
  facet normal -0.793357 0.608757 0
    outer loop
      vertex 0.573406 -0.401503 3
      vertex 0.536231 -0.449951 0
      vertex 0.536231 -0.449951 3
    endloop
  endfacet
  facet normal -0.923885 0.38267 0
    outer loop
      vertex 0.634415 -0.295833 0
      vertex 0.657784 -0.239413 3
      vertex 0.657784 -0.239413 0
    endloop
  endfacet
  facet normal -0.923885 0.38267 0
    outer loop
      vertex 0.657784 -0.239413 3
      vertex 0.634415 -0.295833 0
      vertex 0.634415 -0.295833 3
    endloop
  endfacet
  facet normal -0.976294 0.216448 0
    outer loop
      vertex 0.676147 -0.181173 0
      vertex 0.689365 -0.121553 3
      vertex 0.689365 -0.121553 0
    endloop
  endfacet
  facet normal -0.976294 0.216448 0
    outer loop
      vertex 0.689365 -0.121553 3
      vertex 0.676147 -0.181173 0
      vertex 0.676147 -0.181173 3
    endloop
  endfacet
  facet normal 0.300706 0.953717 -0
    outer loop
      vertex -0.181173 -0.676147 0
      vertex -0.239413 -0.657784 3
      vertex -0.181173 -0.676147 3
    endloop
  endfacet
  facet normal 0.300706 0.953717 0
    outer loop
      vertex -0.239413 -0.657784 3
      vertex -0.181173 -0.676147 0
      vertex -0.239413 -0.657784 0
    endloop
  endfacet
  facet normal 0.737269 0.675599 0
    outer loop
      vertex -0.494974 -0.494974 3
      vertex -0.536231 -0.449951 0
      vertex -0.536231 -0.449951 3
    endloop
  endfacet
  facet normal 0.737269 0.675599 0
    outer loop
      vertex -0.536231 -0.449951 0
      vertex -0.494974 -0.494974 3
      vertex -0.494974 -0.494974 0
    endloop
  endfacet
  facet normal -0.38267 0.923885 0
    outer loop
      vertex 0.295833 -0.634415 0
      vertex 0.239413 -0.657784 3
      vertex 0.295833 -0.634415 3
    endloop
  endfacet
  facet normal -0.38267 0.923885 0
    outer loop
      vertex 0.239413 -0.657784 3
      vertex 0.295833 -0.634415 0
      vertex 0.239413 -0.657784 0
    endloop
  endfacet
  facet normal -0.537292 0.843396 0
    outer loop
      vertex 0.401503 -0.573406 0
      vertex 0.349999 -0.606217 3
      vertex 0.401503 -0.573406 3
    endloop
  endfacet
  facet normal -0.537292 0.843396 0
    outer loop
      vertex 0.349999 -0.606217 3
      vertex 0.401503 -0.573406 0
      vertex 0.349999 -0.606217 0
    endloop
  endfacet
  facet normal -0.608757 0.793357 0
    outer loop
      vertex 0.449951 -0.536231 0
      vertex 0.401503 -0.573406 3
      vertex 0.449951 -0.536231 3
    endloop
  endfacet
  facet normal -0.608757 0.793357 0
    outer loop
      vertex 0.401503 -0.573406 3
      vertex 0.449951 -0.536231 0
      vertex 0.401503 -0.573406 0
    endloop
  endfacet
  facet normal -0.843396 0.537292 0
    outer loop
      vertex 0.573406 -0.401503 0
      vertex 0.606217 -0.349999 3
      vertex 0.606217 -0.349999 0
    endloop
  endfacet
  facet normal -0.843396 0.537292 0
    outer loop
      vertex 0.606217 -0.349999 3
      vertex 0.573406 -0.401503 0
      vertex 0.573406 -0.401503 3
    endloop
  endfacet
  facet normal 0.608757 0.793357 -0
    outer loop
      vertex -0.401503 -0.573406 0
      vertex -0.449951 -0.536231 3
      vertex -0.401503 -0.573406 3
    endloop
  endfacet
  facet normal 0.608757 0.793357 0
    outer loop
      vertex -0.449951 -0.536231 3
      vertex -0.401503 -0.573406 0
      vertex -0.449951 -0.536231 0
    endloop
  endfacet
  facet normal 0.216448 0.976294 -0
    outer loop
      vertex -0.121553 -0.689365 0
      vertex -0.181173 -0.676147 3
      vertex -0.121553 -0.689365 3
    endloop
  endfacet
  facet normal 0.216448 0.976294 0
    outer loop
      vertex -0.181173 -0.676147 3
      vertex -0.121553 -0.689365 0
      vertex -0.181173 -0.676147 0
    endloop
  endfacet
  facet normal 0.130529 0.991445 -0
    outer loop
      vertex -0.0610085 -0.697336 0
      vertex -0.121553 -0.689365 3
      vertex -0.0610085 -0.697336 3
    endloop
  endfacet
  facet normal 0.130529 0.991445 0
    outer loop
      vertex -0.121553 -0.689365 3
      vertex -0.0610085 -0.697336 0
      vertex -0.121553 -0.689365 0
    endloop
  endfacet
  facet normal 0.675599 0.737269 -0
    outer loop
      vertex -0.449951 -0.536231 0
      vertex -0.494974 -0.494974 3
      vertex -0.449951 -0.536231 3
    endloop
  endfacet
  facet normal 0.675599 0.737269 0
    outer loop
      vertex -0.494974 -0.494974 3
      vertex -0.449951 -0.536231 0
      vertex -0.494974 -0.494974 0
    endloop
  endfacet
  facet normal 0.923885 0.38267 0
    outer loop
      vertex -0.634415 -0.295833 3
      vertex -0.657784 -0.239413 0
      vertex -0.657784 -0.239413 3
    endloop
  endfacet
  facet normal 0.923885 0.38267 0
    outer loop
      vertex -0.657784 -0.239413 0
      vertex -0.634415 -0.295833 3
      vertex -0.634415 -0.295833 0
    endloop
  endfacet
  facet normal 0.991445 0.130529 0
    outer loop
      vertex -0.689365 -0.121553 3
      vertex -0.697336 -0.0610085 0
      vertex -0.697336 -0.0610085 3
    endloop
  endfacet
  facet normal 0.991445 0.130529 0
    outer loop
      vertex -0.697336 -0.0610085 0
      vertex -0.689365 -0.121553 3
      vertex -0.689365 -0.121553 0
    endloop
  endfacet
  facet normal 0.999048 0.0436245 0
    outer loop
      vertex -0.697336 -0.0610085 3
      vertex -0.7 0 0
      vertex -0.7 0 3
    endloop
  endfacet
  facet normal 0.999048 0.0436245 0
    outer loop
      vertex -0.7 0 0
      vertex -0.697336 -0.0610085 3
      vertex -0.697336 -0.0610085 0
    endloop
  endfacet
  facet normal -0.300706 0.953717 0
    outer loop
      vertex 0.239413 -0.657784 0
      vertex 0.181173 -0.676147 3
      vertex 0.239413 -0.657784 3
    endloop
  endfacet
  facet normal -0.300706 0.953717 0
    outer loop
      vertex 0.181173 -0.676147 3
      vertex 0.239413 -0.657784 0
      vertex 0.181173 -0.676147 0
    endloop
  endfacet
  facet normal -0.216448 0.976294 0
    outer loop
      vertex 0.181173 -0.676147 0
      vertex 0.121553 -0.689365 3
      vertex 0.181173 -0.676147 3
    endloop
  endfacet
  facet normal -0.216448 0.976294 0
    outer loop
      vertex 0.121553 -0.689365 3
      vertex 0.181173 -0.676147 0
      vertex 0.121553 -0.689365 0
    endloop
  endfacet
  facet normal 0.0436245 0.999048 -0
    outer loop
      vertex 0 -0.7 0
      vertex -0.0610085 -0.697336 3
      vertex 0 -0.7 3
    endloop
  endfacet
  facet normal 0.0436245 0.999048 0
    outer loop
      vertex -0.0610085 -0.697336 3
      vertex 0 -0.7 0
      vertex -0.0610085 -0.697336 0
    endloop
  endfacet
  facet normal 0.461761 0.887004 -0
    outer loop
      vertex -0.295833 -0.634415 0
      vertex -0.349999 -0.606217 3
      vertex -0.295833 -0.634415 3
    endloop
  endfacet
  facet normal 0.461761 0.887004 0
    outer loop
      vertex -0.349999 -0.606217 3
      vertex -0.295833 -0.634415 0
      vertex -0.349999 -0.606217 0
    endloop
  endfacet
  facet normal 0.887004 0.461761 0
    outer loop
      vertex -0.606217 -0.349999 3
      vertex -0.634415 -0.295833 0
      vertex -0.634415 -0.295833 3
    endloop
  endfacet
  facet normal 0.887004 0.461761 0
    outer loop
      vertex -0.634415 -0.295833 0
      vertex -0.606217 -0.349999 3
      vertex -0.606217 -0.349999 0
    endloop
  endfacet
  facet normal 0.953717 0.300706 0
    outer loop
      vertex -0.657784 -0.239413 3
      vertex -0.676147 -0.181173 0
      vertex -0.676147 -0.181173 3
    endloop
  endfacet
  facet normal 0.953717 0.300706 0
    outer loop
      vertex -0.676147 -0.181173 0
      vertex -0.657784 -0.239413 3
      vertex -0.657784 -0.239413 0
    endloop
  endfacet
  facet normal 0.976294 0.216448 0
    outer loop
      vertex -0.676147 -0.181173 3
      vertex -0.689365 -0.121553 0
      vertex -0.689365 -0.121553 3
    endloop
  endfacet
  facet normal 0.976294 0.216448 0
    outer loop
      vertex -0.689365 -0.121553 0
      vertex -0.676147 -0.181173 3
      vertex -0.676147 -0.181173 0
    endloop
  endfacet
  facet normal 0.537292 0.843396 -0
    outer loop
      vertex -0.349999 -0.606217 0
      vertex -0.401503 -0.573406 3
      vertex -0.349999 -0.606217 3
    endloop
  endfacet
  facet normal 0.537292 0.843396 0
    outer loop
      vertex -0.401503 -0.573406 3
      vertex -0.349999 -0.606217 0
      vertex -0.401503 -0.573406 0
    endloop
  endfacet
  facet normal 0.38267 0.923885 -0
    outer loop
      vertex -0.239413 -0.657784 0
      vertex -0.295833 -0.634415 3
      vertex -0.239413 -0.657784 3
    endloop
  endfacet
  facet normal 0.38267 0.923885 0
    outer loop
      vertex -0.295833 -0.634415 3
      vertex -0.239413 -0.657784 0
      vertex -0.295833 -0.634415 0
    endloop
  endfacet
  facet normal 0.843396 0.537292 0
    outer loop
      vertex -0.573406 -0.401503 3
      vertex -0.606217 -0.349999 0
      vertex -0.606217 -0.349999 3
    endloop
  endfacet
  facet normal 0.843396 0.537292 0
    outer loop
      vertex -0.606217 -0.349999 0
      vertex -0.573406 -0.401503 3
      vertex -0.573406 -0.401503 0
    endloop
  endfacet
  facet normal 0.793357 0.608757 0
    outer loop
      vertex -0.536231 -0.449951 3
      vertex -0.573406 -0.401503 0
      vertex -0.573406 -0.401503 3
    endloop
  endfacet
  facet normal 0.793357 0.608757 0
    outer loop
      vertex -0.573406 -0.401503 0
      vertex -0.536231 -0.449951 3
      vertex -0.536231 -0.449951 0
    endloop
  endfacet
endsolid OpenSCAD_Model
