solid OpenSCAD_Model
  facet normal -1 0 0
    outer loop
      vertex 0 -99 2
      vertex 0 0 5
      vertex 0 0 2
    endloop
  endfacet
  facet normal -1 -0 0
    outer loop
      vertex 0 0 5
      vertex 0 -99 2
      vertex 0 -99 5
    endloop
  endfacet
  facet normal 0 -1 0
    outer loop
      vertex 0 -99 2
      vertex 69 -99 5
      vertex 0 -99 5
    endloop
  endfacet
  facet normal 0 -1 -0
    outer loop
      vertex 69 -99 5
      vertex 0 -99 2
      vertex 69 -99 2
    endloop
  endfacet
  facet normal 1 -0 0
    outer loop
      vertex 69 -99 5
      vertex 69 0 2
      vertex 69 0 5
    endloop
  endfacet
  facet normal 1 0 0
    outer loop
      vertex 69 0 2
      vertex 69 -99 5
      vertex 69 -99 2
    endloop
  endfacet
  facet normal 0 0 1
    outer loop
      vertex 62 -90 5
      vertex 69 0 5
      vertex 62 -8 5
    endloop
  endfacet
  facet normal 0 0 1
    outer loop
      vertex 69 0 5
      vertex 58 -8 5
      vertex 62 -8 5
    endloop
  endfacet
  facet normal 0 0 1
    outer loop
      vertex 58 -8 5
      vertex 52 -8 5
      vertex 58 -90 5
    endloop
  endfacet
  facet normal 0 0 1
    outer loop
      vertex 69 0 5
      vertex 52 -8 5
      vertex 58 -8 5
    endloop
  endfacet
  facet normal 0 0 1
    outer loop
      vertex 69 0 5
      vertex 48 -8 5
      vertex 52 -8 5
    endloop
  endfacet
  facet normal 0 0 1
    outer loop
      vertex 48 -8 5
      vertex 42 -8 5
      vertex 48 -90 5
    endloop
  endfacet
  facet normal 0 0 1
    outer loop
      vertex 69 0 5
      vertex 42 -8 5
      vertex 48 -8 5
    endloop
  endfacet
  facet normal 0 0 1
    outer loop
      vertex 69 0 5
      vertex 38 -8 5
      vertex 42 -8 5
    endloop
  endfacet
  facet normal 0 0 1
    outer loop
      vertex 38 -8 5
      vertex 32 -8 5
      vertex 38 -90 5
    endloop
  endfacet
  facet normal 0 0 1
    outer loop
      vertex 69 0 5
      vertex 32 -8 5
      vertex 38 -8 5
    endloop
  endfacet
  facet normal -0 0 1
    outer loop
      vertex 0 0 5
      vertex 32 -8 5
      vertex 69 0 5
    endloop
  endfacet
  facet normal 0 0 1
    outer loop
      vertex 28 -8 5
      vertex 22 -8 5
      vertex 28 -90 5
    endloop
  endfacet
  facet normal 0 0 1
    outer loop
      vertex 32 -8 5
      vertex 0 0 5
      vertex 28 -8 5
    endloop
  endfacet
  facet normal 0 0 1
    outer loop
      vertex 28 -8 5
      vertex 0 0 5
      vertex 22 -8 5
    endloop
  endfacet
  facet normal 0 0 1
    outer loop
      vertex 18 -8 5
      vertex 12 -8 5
      vertex 18 -90 5
    endloop
  endfacet
  facet normal 0 0 1
    outer loop
      vertex 22 -8 5
      vertex 0 0 5
      vertex 18 -8 5
    endloop
  endfacet
  facet normal 0 0 1
    outer loop
      vertex 18 -8 5
      vertex 0 0 5
      vertex 12 -8 5
    endloop
  endfacet
  facet normal 0 0 1
    outer loop
      vertex 8 -8 5
      vertex 0 0 5
      vertex 8 -90 5
    endloop
  endfacet
  facet normal 0 0 1
    outer loop
      vertex 12 -8 5
      vertex 0 0 5
      vertex 8 -8 5
    endloop
  endfacet
  facet normal 0 0 1
    outer loop
      vertex 69 0 5
      vertex 62 -90 5
      vertex 69 -99 5
    endloop
  endfacet
  facet normal -0 0 1
    outer loop
      vertex 58 -90 5
      vertex 69 -99 5
      vertex 62 -90 5
    endloop
  endfacet
  facet normal 0 0 1
    outer loop
      vertex 52 -90 5
      vertex 58 -90 5
      vertex 52 -8 5
    endloop
  endfacet
  facet normal -0 0 1
    outer loop
      vertex 52 -90 5
      vertex 69 -99 5
      vertex 58 -90 5
    endloop
  endfacet
  facet normal -0 0 1
    outer loop
      vertex 48 -90 5
      vertex 69 -99 5
      vertex 52 -90 5
    endloop
  endfacet
  facet normal 0 0 1
    outer loop
      vertex 42 -90 5
      vertex 48 -90 5
      vertex 42 -8 5
    endloop
  endfacet
  facet normal -0 0 1
    outer loop
      vertex 42 -90 5
      vertex 69 -99 5
      vertex 48 -90 5
    endloop
  endfacet
  facet normal -0 0 1
    outer loop
      vertex 38 -90 5
      vertex 69 -99 5
      vertex 42 -90 5
    endloop
  endfacet
  facet normal 0 0 1
    outer loop
      vertex 32 -90 5
      vertex 38 -90 5
      vertex 32 -8 5
    endloop
  endfacet
  facet normal -0 0 1
    outer loop
      vertex 32 -90 5
      vertex 69 -99 5
      vertex 38 -90 5
    endloop
  endfacet
  facet normal 0 0 1
    outer loop
      vertex 0 -99 5
      vertex 32 -90 5
      vertex 28 -90 5
    endloop
  endfacet
  facet normal 0 0 1
    outer loop
      vertex 22 -90 5
      vertex 28 -90 5
      vertex 22 -8 5
    endloop
  endfacet
  facet normal 0 0 1
    outer loop
      vertex 0 -99 5
      vertex 28 -90 5
      vertex 22 -90 5
    endloop
  endfacet
  facet normal 0 0 1
    outer loop
      vertex 0 -99 5
      vertex 22 -90 5
      vertex 18 -90 5
    endloop
  endfacet
  facet normal 0 0 1
    outer loop
      vertex 12 -90 5
      vertex 18 -90 5
      vertex 12 -8 5
    endloop
  endfacet
  facet normal 0 0 1
    outer loop
      vertex 0 -99 5
      vertex 18 -90 5
      vertex 12 -90 5
    endloop
  endfacet
  facet normal 0 0 1
    outer loop
      vertex 0 -99 5
      vertex 12 -90 5
      vertex 8 -90 5
    endloop
  endfacet
  facet normal 0 0 1
    outer loop
      vertex 32 -90 5
      vertex 0 -99 5
      vertex 69 -99 5
    endloop
  endfacet
  facet normal 0 0 1
    outer loop
      vertex 0 -99 5
      vertex 8 -90 5
      vertex 0 0 5
    endloop
  endfacet
  facet normal 0 1 -0
    outer loop
      vertex 69 0 2
      vertex 0 0 5
      vertex 69 0 5
    endloop
  endfacet
  facet normal 0 1 0
    outer loop
      vertex 0 0 5
      vertex 69 0 2
      vertex 0 0 2
    endloop
  endfacet
  facet normal 0 0 -1
    outer loop
      vertex 69 -99 2
      vertex 67 -97 2
      vertex 69 0 2
    endloop
  endfacet
  facet normal 0 0 -1
    outer loop
      vertex 69 -99 2
      vertex 2 -97 2
      vertex 67 -97 2
    endloop
  endfacet
  facet normal -0 0 -1
    outer loop
      vertex 2 -97 2
      vertex 0 -99 2
      vertex 2 -2 2
    endloop
  endfacet
  facet normal 0 0 -1
    outer loop
      vertex 0 -99 2
      vertex 2 -97 2
      vertex 69 -99 2
    endloop
  endfacet
  facet normal 0 0 -1
    outer loop
      vertex 67 -2 2
      vertex 69 0 2
      vertex 67 -97 2
    endloop
  endfacet
  facet normal 0 0 -1
    outer loop
      vertex 2 -2 2
      vertex 69 0 2
      vertex 67 -2 2
    endloop
  endfacet
  facet normal 0 0 -1
    outer loop
      vertex 2 -2 2
      vertex 0 0 2
      vertex 69 0 2
    endloop
  endfacet
  facet normal 0 0 -1
    outer loop
      vertex 0 0 2
      vertex 2 -2 2
      vertex 0 -99 2
    endloop
  endfacet
  facet normal -1 0 0
    outer loop
      vertex 2 -97 0
      vertex 2 -2 2
      vertex 2 -2 0
    endloop
  endfacet
  facet normal -1 -0 0
    outer loop
      vertex 2 -2 2
      vertex 2 -97 0
      vertex 2 -97 2
    endloop
  endfacet
  facet normal 0 -1 0
    outer loop
      vertex 2 -97 0
      vertex 67 -97 2
      vertex 2 -97 2
    endloop
  endfacet
  facet normal 0 -1 -0
    outer loop
      vertex 67 -97 2
      vertex 2 -97 0
      vertex 67 -97 0
    endloop
  endfacet
  facet normal 1 -0 0
    outer loop
      vertex 67 -97 2
      vertex 67 -2 0
      vertex 67 -2 2
    endloop
  endfacet
  facet normal 1 0 0
    outer loop
      vertex 67 -2 0
      vertex 67 -97 2
      vertex 67 -97 0
    endloop
  endfacet
  facet normal 0 1 -0
    outer loop
      vertex 67 -2 0
      vertex 2 -2 2
      vertex 67 -2 2
    endloop
  endfacet
  facet normal 0 1 0
    outer loop
      vertex 2 -2 2
      vertex 67 -2 0
      vertex 2 -2 0
    endloop
  endfacet
  facet normal 0 0 -1
    outer loop
      vertex 67 -97 0
      vertex 62 -90 0
      vertex 67 -2 0
    endloop
  endfacet
  facet normal 0 0 -1
    outer loop
      vertex 67 -97 0
      vertex 58 -90 0
      vertex 62 -90 0
    endloop
  endfacet
  facet normal 0 0 -1
    outer loop
      vertex 58 -90 0
      vertex 52 -90 0
      vertex 58 -8 0
    endloop
  endfacet
  facet normal 0 0 -1
    outer loop
      vertex 67 -97 0
      vertex 52 -90 0
      vertex 58 -90 0
    endloop
  endfacet
  facet normal 0 0 -1
    outer loop
      vertex 67 -97 0
      vertex 48 -90 0
      vertex 52 -90 0
    endloop
  endfacet
  facet normal 0 0 -1
    outer loop
      vertex 48 -90 0
      vertex 42 -90 0
      vertex 48 -8 0
    endloop
  endfacet
  facet normal 0 0 -1
    outer loop
      vertex 67 -97 0
      vertex 42 -90 0
      vertex 48 -90 0
    endloop
  endfacet
  facet normal 0 0 -1
    outer loop
      vertex 67 -97 0
      vertex 38 -90 0
      vertex 42 -90 0
    endloop
  endfacet
  facet normal 0 0 -1
    outer loop
      vertex 38 -90 0
      vertex 32 -90 0
      vertex 38 -8 0
    endloop
  endfacet
  facet normal 0 0 -1
    outer loop
      vertex 67 -97 0
      vertex 32 -90 0
      vertex 38 -90 0
    endloop
  endfacet
  facet normal 0 0 -1
    outer loop
      vertex 2 -97 0
      vertex 32 -90 0
      vertex 67 -97 0
    endloop
  endfacet
  facet normal 0 0 -1
    outer loop
      vertex 28 -90 0
      vertex 22 -90 0
      vertex 28 -8 0
    endloop
  endfacet
  facet normal -0 0 -1
    outer loop
      vertex 32 -90 0
      vertex 2 -97 0
      vertex 28 -90 0
    endloop
  endfacet
  facet normal -0 0 -1
    outer loop
      vertex 28 -90 0
      vertex 2 -97 0
      vertex 22 -90 0
    endloop
  endfacet
  facet normal 0 0 -1
    outer loop
      vertex 18 -90 0
      vertex 12 -90 0
      vertex 18 -8 0
    endloop
  endfacet
  facet normal -0 0 -1
    outer loop
      vertex 22 -90 0
      vertex 2 -97 0
      vertex 18 -90 0
    endloop
  endfacet
  facet normal -0 0 -1
    outer loop
      vertex 18 -90 0
      vertex 2 -97 0
      vertex 12 -90 0
    endloop
  endfacet
  facet normal 0 0 -1
    outer loop
      vertex 2 -2 0
      vertex 8 -90 0
      vertex 2 -97 0
    endloop
  endfacet
  facet normal -0 0 -1
    outer loop
      vertex 12 -90 0
      vertex 2 -97 0
      vertex 8 -90 0
    endloop
  endfacet
  facet normal 0 0 -1
    outer loop
      vertex 62 -8 0
      vertex 67 -2 0
      vertex 62 -90 0
    endloop
  endfacet
  facet normal 0 0 -1
    outer loop
      vertex 58 -8 0
      vertex 67 -2 0
      vertex 62 -8 0
    endloop
  endfacet
  facet normal 0 0 -1
    outer loop
      vertex 52 -8 0
      vertex 58 -8 0
      vertex 52 -90 0
    endloop
  endfacet
  facet normal 0 0 -1
    outer loop
      vertex 52 -8 0
      vertex 67 -2 0
      vertex 58 -8 0
    endloop
  endfacet
  facet normal 0 0 -1
    outer loop
      vertex 48 -8 0
      vertex 67 -2 0
      vertex 52 -8 0
    endloop
  endfacet
  facet normal 0 0 -1
    outer loop
      vertex 42 -8 0
      vertex 48 -8 0
      vertex 42 -90 0
    endloop
  endfacet
  facet normal 0 0 -1
    outer loop
      vertex 42 -8 0
      vertex 67 -2 0
      vertex 48 -8 0
    endloop
  endfacet
  facet normal 0 0 -1
    outer loop
      vertex 38 -8 0
      vertex 67 -2 0
      vertex 42 -8 0
    endloop
  endfacet
  facet normal 0 0 -1
    outer loop
      vertex 32 -8 0
      vertex 38 -8 0
      vertex 32 -90 0
    endloop
  endfacet
  facet normal 0 0 -1
    outer loop
      vertex 32 -8 0
      vertex 67 -2 0
      vertex 38 -8 0
    endloop
  endfacet
  facet normal 0 0 -1
    outer loop
      vertex 2 -2 0
      vertex 32 -8 0
      vertex 28 -8 0
    endloop
  endfacet
  facet normal 0 0 -1
    outer loop
      vertex 22 -8 0
      vertex 28 -8 0
      vertex 22 -90 0
    endloop
  endfacet
  facet normal 0 0 -1
    outer loop
      vertex 2 -2 0
      vertex 28 -8 0
      vertex 22 -8 0
    endloop
  endfacet
  facet normal 0 0 -1
    outer loop
      vertex 2 -2 0
      vertex 22 -8 0
      vertex 18 -8 0
    endloop
  endfacet
  facet normal 0 0 -1
    outer loop
      vertex 12 -8 0
      vertex 18 -8 0
      vertex 12 -90 0
    endloop
  endfacet
  facet normal 0 0 -1
    outer loop
      vertex 2 -2 0
      vertex 18 -8 0
      vertex 12 -8 0
    endloop
  endfacet
  facet normal 0 0 -1
    outer loop
      vertex 2 -2 0
      vertex 12 -8 0
      vertex 8 -8 0
    endloop
  endfacet
  facet normal 0 0 -1
    outer loop
      vertex 32 -8 0
      vertex 2 -2 0
      vertex 67 -2 0
    endloop
  endfacet
  facet normal 0 0 -1
    outer loop
      vertex 8 -90 0
      vertex 2 -2 0
      vertex 8 -8 0
    endloop
  endfacet
  facet normal 1 -0 0
    outer loop
      vertex 8 -90 5
      vertex 8 -8 0
      vertex 8 -8 5
    endloop
  endfacet
  facet normal 1 0 0
    outer loop
      vertex 8 -8 0
      vertex 8 -90 5
      vertex 8 -90 0
    endloop
  endfacet
  facet normal 0 1 -0
    outer loop
      vertex 12 -90 0
      vertex 8 -90 5
      vertex 12 -90 5
    endloop
  endfacet
  facet normal 0 1 0
    outer loop
      vertex 8 -90 5
      vertex 12 -90 0
      vertex 8 -90 0
    endloop
  endfacet
  facet normal -1 0 0
    outer loop
      vertex 12 -90 0
      vertex 12 -8 5
      vertex 12 -8 0
    endloop
  endfacet
  facet normal -1 -0 0
    outer loop
      vertex 12 -8 5
      vertex 12 -90 0
      vertex 12 -90 5
    endloop
  endfacet
  facet normal 0 -1 0
    outer loop
      vertex 8 -8 0
      vertex 12 -8 5
      vertex 8 -8 5
    endloop
  endfacet
  facet normal 0 -1 -0
    outer loop
      vertex 12 -8 5
      vertex 8 -8 0
      vertex 12 -8 0
    endloop
  endfacet
  facet normal 1 -0 0
    outer loop
      vertex 18 -90 5
      vertex 18 -8 0
      vertex 18 -8 5
    endloop
  endfacet
  facet normal 1 0 0
    outer loop
      vertex 18 -8 0
      vertex 18 -90 5
      vertex 18 -90 0
    endloop
  endfacet
  facet normal 0 1 -0
    outer loop
      vertex 22 -90 0
      vertex 18 -90 5
      vertex 22 -90 5
    endloop
  endfacet
  facet normal 0 1 0
    outer loop
      vertex 18 -90 5
      vertex 22 -90 0
      vertex 18 -90 0
    endloop
  endfacet
  facet normal -1 0 0
    outer loop
      vertex 22 -90 0
      vertex 22 -8 5
      vertex 22 -8 0
    endloop
  endfacet
  facet normal -1 -0 0
    outer loop
      vertex 22 -8 5
      vertex 22 -90 0
      vertex 22 -90 5
    endloop
  endfacet
  facet normal 0 -1 0
    outer loop
      vertex 18 -8 0
      vertex 22 -8 5
      vertex 18 -8 5
    endloop
  endfacet
  facet normal 0 -1 -0
    outer loop
      vertex 22 -8 5
      vertex 18 -8 0
      vertex 22 -8 0
    endloop
  endfacet
  facet normal 1 -0 0
    outer loop
      vertex 28 -90 5
      vertex 28 -8 0
      vertex 28 -8 5
    endloop
  endfacet
  facet normal 1 0 0
    outer loop
      vertex 28 -8 0
      vertex 28 -90 5
      vertex 28 -90 0
    endloop
  endfacet
  facet normal 0 1 -0
    outer loop
      vertex 32 -90 0
      vertex 28 -90 5
      vertex 32 -90 5
    endloop
  endfacet
  facet normal 0 1 0
    outer loop
      vertex 28 -90 5
      vertex 32 -90 0
      vertex 28 -90 0
    endloop
  endfacet
  facet normal -1 0 0
    outer loop
      vertex 32 -90 0
      vertex 32 -8 5
      vertex 32 -8 0
    endloop
  endfacet
  facet normal -1 -0 0
    outer loop
      vertex 32 -8 5
      vertex 32 -90 0
      vertex 32 -90 5
    endloop
  endfacet
  facet normal 0 -1 0
    outer loop
      vertex 28 -8 0
      vertex 32 -8 5
      vertex 28 -8 5
    endloop
  endfacet
  facet normal 0 -1 -0
    outer loop
      vertex 32 -8 5
      vertex 28 -8 0
      vertex 32 -8 0
    endloop
  endfacet
  facet normal 1 -0 0
    outer loop
      vertex 38 -90 5
      vertex 38 -8 0
      vertex 38 -8 5
    endloop
  endfacet
  facet normal 1 0 0
    outer loop
      vertex 38 -8 0
      vertex 38 -90 5
      vertex 38 -90 0
    endloop
  endfacet
  facet normal 0 1 -0
    outer loop
      vertex 42 -90 0
      vertex 38 -90 5
      vertex 42 -90 5
    endloop
  endfacet
  facet normal 0 1 0
    outer loop
      vertex 38 -90 5
      vertex 42 -90 0
      vertex 38 -90 0
    endloop
  endfacet
  facet normal -1 0 0
    outer loop
      vertex 42 -90 0
      vertex 42 -8 5
      vertex 42 -8 0
    endloop
  endfacet
  facet normal -1 -0 0
    outer loop
      vertex 42 -8 5
      vertex 42 -90 0
      vertex 42 -90 5
    endloop
  endfacet
  facet normal 0 -1 0
    outer loop
      vertex 38 -8 0
      vertex 42 -8 5
      vertex 38 -8 5
    endloop
  endfacet
  facet normal 0 -1 -0
    outer loop
      vertex 42 -8 5
      vertex 38 -8 0
      vertex 42 -8 0
    endloop
  endfacet
  facet normal 1 -0 0
    outer loop
      vertex 48 -90 5
      vertex 48 -8 0
      vertex 48 -8 5
    endloop
  endfacet
  facet normal 1 0 0
    outer loop
      vertex 48 -8 0
      vertex 48 -90 5
      vertex 48 -90 0
    endloop
  endfacet
  facet normal 0 1 -0
    outer loop
      vertex 52 -90 0
      vertex 48 -90 5
      vertex 52 -90 5
    endloop
  endfacet
  facet normal 0 1 0
    outer loop
      vertex 48 -90 5
      vertex 52 -90 0
      vertex 48 -90 0
    endloop
  endfacet
  facet normal -1 0 0
    outer loop
      vertex 52 -90 0
      vertex 52 -8 5
      vertex 52 -8 0
    endloop
  endfacet
  facet normal -1 -0 0
    outer loop
      vertex 52 -8 5
      vertex 52 -90 0
      vertex 52 -90 5
    endloop
  endfacet
  facet normal 0 -1 0
    outer loop
      vertex 48 -8 0
      vertex 52 -8 5
      vertex 48 -8 5
    endloop
  endfacet
  facet normal 0 -1 -0
    outer loop
      vertex 52 -8 5
      vertex 48 -8 0
      vertex 52 -8 0
    endloop
  endfacet
  facet normal 1 -0 0
    outer loop
      vertex 58 -90 5
      vertex 58 -8 0
      vertex 58 -8 5
    endloop
  endfacet
  facet normal 1 0 0
    outer loop
      vertex 58 -8 0
      vertex 58 -90 5
      vertex 58 -90 0
    endloop
  endfacet
  facet normal 0 1 -0
    outer loop
      vertex 62 -90 0
      vertex 58 -90 5
      vertex 62 -90 5
    endloop
  endfacet
  facet normal 0 1 0
    outer loop
      vertex 58 -90 5
      vertex 62 -90 0
      vertex 58 -90 0
    endloop
  endfacet
  facet normal -1 0 0
    outer loop
      vertex 62 -90 0
      vertex 62 -8 5
      vertex 62 -8 0
    endloop
  endfacet
  facet normal -1 -0 0
    outer loop
      vertex 62 -8 5
      vertex 62 -90 0
      vertex 62 -90 5
    endloop
  endfacet
  facet normal 0 -1 0
    outer loop
      vertex 58 -8 0
      vertex 62 -8 5
      vertex 58 -8 5
    endloop
  endfacet
  facet normal 0 -1 -0
    outer loop
      vertex 62 -8 5
      vertex 58 -8 0
      vertex 62 -8 0
    endloop
  endfacet
endsolid OpenSCAD_Model
